<svg xmlns="http://www.w3.org/2000/svg" viewBox="0 0 24 24"><defs><style>.cls-1,.cls-2,.cls-3,.cls-4{fill:none;}.cls-1,.cls-2,.cls-4{stroke:#231f20;}.cls-1,.cls-2{stroke-linejoin:round;}.cls-1{stroke-width:2px;}.cls-4{stroke-miterlimit:10;}</style></defs><title>Report-Delete</title><g id="Layer_2" data-name="Layer 2"><g id="Layer_1-2" data-name="Layer 1"><g id="Report-Delete"><polyline class="cls-1" points="19 15 19 3 16 3"/><polyline class="cls-1" points="8 3 5 3 5 21 15 21"/><path class="cls-2" d="M10.5,1.5h3a1,1,0,0,1,1,1v1a0,0,0,0,1,0,0h-5a0,0,0,0,1,0,0v-1A1,1,0,0,1,10.5,1.5Z"/><line class="cls-2" x1="17" y1="6.5" x2="7" y2="6.5"/><line class="cls-2" x1="9" y1="8.5" x2="7" y2="8.5"/><line class="cls-2" x1="16" y1="21.5" x2="15" y2="21.5"/><line class="cls-2" x1="15" y1="8.5" x2="10" y2="8.5"/><line class="cls-2" x1="15" y1="13.5" x2="7" y2="13.5"/><line class="cls-2" x1="13" y1="15.5" x2="7" y2="15.5"/><line class="cls-2" x1="12" y1="17.5" x2="7" y2="17.5"/><rect class="cls-3" width="24" height="24"/><circle class="cls-4" cx="18.5" cy="18.5" r="4"/><line class="cls-4" x1="16" y1="18.5" x2="21" y2="18.5"/></g></g></g></svg>