<svg xmlns="http://www.w3.org/2000/svg" viewBox="0 0 24 24"><defs><style>.cls-1,.cls-2,.cls-3{fill:none;}.cls-1,.cls-2{stroke:#231f20;stroke-linejoin:round;}.cls-1{stroke-width:2px;}</style></defs><title>Report</title><g id="Layer_2" data-name="Layer 2"><g id="Layer_1-2" data-name="Layer 1"><g id="Report"><polyline class="cls-1" points="8 3 5 3 5 21 19 21 19 3 16 3"/><path class="cls-2" d="M10.5,1.5h3a1,1,0,0,1,1,1v1a0,0,0,0,1,0,0h-5a0,0,0,0,1,0,0v-1A1,1,0,0,1,10.5,1.5Z"/><line class="cls-2" x1="17" y1="6.5" x2="7" y2="6.5"/><line class="cls-2" x1="9" y1="8.5" x2="7" y2="8.5"/><line class="cls-2" x1="17" y1="15.5" x2="14" y2="15.5"/><line class="cls-2" x1="15" y1="8.5" x2="10" y2="8.5"/><line class="cls-2" x1="17" y1="13.5" x2="7" y2="13.5"/><line class="cls-2" x1="13" y1="15.5" x2="7" y2="15.5"/><line class="cls-2" x1="12" y1="17.5" x2="7" y2="17.5"/><rect class="cls-3" width="24" height="24"/><rect class="cls-3" width="24" height="24"/></g></g></g></svg>